<svg width="37" height="31" viewBox="0 0 37 31" fill="none" xmlns="http://www.w3.org/2000/svg">
<path fill-rule="evenodd" clip-rule="evenodd" d="M0.28125 29.0938C0.28125 28.6545 0.455748 28.2332 0.766355 27.9226C1.07696 27.612 1.49824 27.4375 1.9375 27.4375H35.0625C35.5018 27.4375 35.923 27.612 36.2336 27.9226C36.5443 28.2332 36.7188 28.6545 36.7188 29.0938C36.7188 29.533 36.5443 29.9543 36.2336 30.2649C35.923 30.5755 35.5018 30.75 35.0625 30.75H1.9375C1.49824 30.75 1.07696 30.5755 0.766355 30.2649C0.455748 29.9543 0.28125 29.533 0.28125 29.0938ZM0.28125 15.8438C0.28125 15.4045 0.455748 14.9832 0.766355 14.6726C1.07696 14.362 1.49824 14.1875 1.9375 14.1875H35.0625C35.5018 14.1875 35.923 14.362 36.2336 14.6726C36.5443 14.9832 36.7188 15.4045 36.7188 15.8438C36.7188 16.283 36.5443 16.7043 36.2336 17.0149C35.923 17.3255 35.5018 17.5 35.0625 17.5H1.9375C1.49824 17.5 1.07696 17.3255 0.766355 17.0149C0.455748 16.7043 0.28125 16.283 0.28125 15.8438ZM0.28125 2.59375C0.28125 2.15449 0.455748 1.73321 0.766355 1.4226C1.07696 1.112 1.49824 0.9375 1.9375 0.9375H35.0625C35.5018 0.9375 35.923 1.112 36.2336 1.4226C36.5443 1.73321 36.7188 2.15449 36.7188 2.59375C36.7188 3.03301 36.5443 3.45429 36.2336 3.7649C35.923 4.0755 35.5018 4.25 35.0625 4.25H1.9375C1.49824 4.25 1.07696 4.0755 0.766355 3.7649C0.455748 3.45429 0.28125 3.03301 0.28125 2.59375Z" fill="white"/>
</svg>
