<svg width="65" height="65" viewBox="0 0 65 65" fill="none" xmlns="http://www.w3.org/2000/svg">
<g clip-path="url(#clip0_250_350)">
<rect width="65" height="65" rx="32.5" fill="#8C8C8C"/>
<path d="M20.5833 45.4532C24.5555 48.342 28.5278 50.6532 32.5 50.6532C36.4721 50.6532 40.4445 48.342 44.4166 45.4532C41.1425 44.4565 39.4814 42.9688 39.4333 40.9899C39.4333 40.6371 39.4359 40.1362 39.4383 39.1957C39.4383 39.0463 39.4387 38.8933 39.4394 38.7368C39.4459 36.2148 39.4565 32.8868 39.4714 29.5068C42.5767 25.4817 41.436 20.763 40.4629 20.8806C39.2699 21.0258 28.9343 11.2177 26.9518 10.7148C24.9693 10.2119 19.9333 11.8354 19.0666 16.3583C18.2 20.8813 17.8377 32.2818 21.125 36.8333C22.0604 38.1286 23.5337 38.6352 25.545 38.3533C25.5478 39.2999 25.5534 39.8311 25.5666 40.9032C25.5409 42.9722 23.8799 44.4576 20.5833 45.4532Z" fill="url(#paint0_linear_250_350)"/>
<path d="M25.5667 38.35C30.3333 37.8083 33.3667 35.75 33.3667 35.75C33.3667 35.75 29.9 40.0833 25.5667 40.95V38.35Z" fill="#FC9F6A"/>
<path d="M41.0583 29.575C42.5512 25.9848 48.5333 18.673 43.3767 14.123C41.6433 5.67299 32.0667 6.60834 25.675 8.55834C21.3791 9.86896 18.135 12.4583 17.4417 10.5083C13.1083 14.123 15.2785 17.6583 18.135 18.673C20.7276 19.5938 25.1117 20.5147 32.5663 19.648C33.8979 19.4931 33.6191 23.5714 34.3306 24.0123C35.3981 24.6738 36.2267 20.5147 39.1534 21.7635C42.0801 23.0124 40.3433 28.803 37.2017 28.803C36.1183 28.803 35.5767 31.7815 38.5017 33.1899C40.625 34.2333 40.0883 31.9079 41.0583 29.575Z" fill="url(#paint1_linear_250_350)"/>
<path d="M55.25 52.0668C57.3127 56.2608 58.5 65.9334 58.5 65.9334H6.5C6.5 65.9334 7.68777 56.2597 9.75 52.0668C11.8122 47.8738 23.855 43.9849 23.855 43.9849C30.5095 46.5834 34.5817 46.5834 41.1387 43.9834C41.1387 43.9834 53.1873 47.8727 55.25 52.0668Z" fill="url(#paint2_linear_250_350)"/>
<path d="M34.0167 45.5L35.1 65.4334H29.9L30.9834 45.5C30.9834 45.5 31.9945 44.4167 32.5 44.4167C33.0055 44.4167 34.0167 45.5 34.0167 45.5Z" fill="url(#paint3_linear_250_350)"/>
<path d="M34.2635 49.55L30.8564 47.5813L30.9834 45.5C31.6575 44.7778 32.163 44.4167 32.5 44.4167C32.837 44.4167 33.3426 44.7778 34.0167 45.5L34.2637 49.55H34.2635Z" fill="#645050"/>
<path d="M32.5 44.4149L30.3333 48.3167L23.6166 44.2L25.5666 41.3833L32.5 43.9446L39.4333 41.3833L41.3833 44.2L34.6666 48.3167L32.5 44.4149Z" fill="white"/>
</g>
<defs>
<linearGradient id="paint0_linear_250_350" x1="31.443" y1="10.6269" x2="31.443" y2="50.6532" gradientUnits="userSpaceOnUse">
<stop stop-color="#F7B186"/>
<stop offset="1" stop-color="#FFC299"/>
</linearGradient>
<linearGradient id="paint1_linear_250_350" x1="30.2121" y1="7.23404" x2="30.2121" y2="33.4465" gradientUnits="userSpaceOnUse">
<stop stop-color="#1D0024"/>
<stop offset="1" stop-color="#100014"/>
</linearGradient>
<linearGradient id="paint2_linear_250_350" x1="32.5" y1="43.9834" x2="32.5" y2="65.9334" gradientUnits="userSpaceOnUse">
<stop stop-color="#1D0024"/>
<stop offset="1" stop-color="#100014"/>
</linearGradient>
<linearGradient id="paint3_linear_250_350" x1="32.5" y1="44.4167" x2="32.5" y2="65.4334" gradientUnits="userSpaceOnUse">
<stop stop-color="#806A6A"/>
<stop offset="1" stop-color="#665654"/>
</linearGradient>
<clipPath id="clip0_250_350">
<rect width="65" height="65" rx="32.5" fill="white"/>
</clipPath>
</defs>
</svg>
